<svg height="512pt" viewBox="0 0 512 512" width="512pt" xmlns="http://www.w3.org/2000/svg"><path d="m59.429688 212.113281c-.914063 4.574219-4.574219 7.316407-8.230469 7.316407h-51.199219v73.140624h51.199219c4.570312 0 8.230469 2.742188 9.144531 7.316407 4.570312 22.855469 13.714844 44.800781 26.511719 64 2.746093 3.65625 1.832031 8.226562-.914063 10.96875l-36.570312 36.574219 52.113281 52.113281 35.660156-35.65625c2.742188-2.742188 7.3125-3.65625 10.96875-.914063 20.117188 12.796875 41.144531 21.941406 64 26.511719 4.574219.914063 7.316407 4.574219 7.316407 9.144531v49.371094h27.425781v-101.484375c-82.285157-4.574219-146.285157-73.144531-146.285157-154.515625s64-149.941406 146.285157-154.515625v-101.484375h-27.425781v51.199219c0 4.570312-2.742188 8.230469-7.316407 9.144531-22.855469 4.570312-44.800781 13.714844-64 26.511719-3.65625 2.746093-8.226562 1.832031-10.96875-.914063l-36.574219-36.570312-51.199218 51.199218 35.65625 36.574219c2.742187 2.742188 3.660156 7.3125.914062 10.96875-11.882812 19.199219-21.027344 41.144531-26.511718 64zm0 0"/><path d="m387.65625 136.230469c8.230469 34.742187 13.714844 70.398437 13.714844 106.054687h109.714844c-2.742188-44.800781-16.457032-87.769531-41.144532-125.257812-26.511718 9.144531-53.941406 15.542968-82.285156 19.203125zm0 0"/><path d="m265.144531 511.085938c40.226563-5.484376 77.710938-51.199219 99.65625-120.6875-32.914062-3.65625-66.742187-6.398438-99.65625-6.398438zm0 0"/><path d="m265.144531 365.714844c34.742188 0 69.484375 2.742187 104.226563 7.3125 9.144531-36.570313 13.714844-74.054688 14.628906-112.457032h-118.855469zm0 0"/><path d="m246.855469 137.144531v-17.375c-72.226563 4.574219-128 64.917969-128 136.230469s55.773437 131.65625 128 136.230469v-40.230469l-76.796875-42.972656c-3.660156-.914063-5.488282-3.65625-5.488282-7.3125v-91.429688c0-3.65625 1.828126-7.3125 5.488282-8.226562l76.796875-33.828125zm0 0"/><path d="m512 260.570312h-109.714844c0 38.402344-4.570312 76.800782-14.628906 115.199219 28.34375 3.660157 55.773438 10.972657 82.285156 20.117188 26.515625-41.144531 41.144532-87.773438 42.058594-135.316407zm0 0"/><path d="m246.855469 331.886719v-144.457031l-64 28.339843v80.460938zm0 0"/><path d="m265.144531.914062v127.085938c32.914063 0 66.742188-2.742188 99.65625-6.398438-21.945312-70.402343-59.429687-115.203124-99.65625-120.6875zm0 0"/><path d="m318.171875 8.230469c26.515625 23.769531 49.371094 61.253906 64 110.625 26.515625-3.65625 52.113281-10.054688 76.800781-17.371094-34.742187-46.628906-84.117187-79.542969-140.800781-93.253906zm0 0"/><path d="m265.144531 173.714844v68.570312h118.855469c-.914062-34.742187-5.484375-69.484375-13.714844-103.3125-35.65625 4.570313-70.398437 7.3125-105.140625 7.3125zm0 0"/><path d="m459.886719 410.515625c-24.6875-8.230469-51.199219-13.714844-76.800781-17.371094-14.628907 49.371094-37.484376 87.769531-64 110.625 55.769531-13.710937 105.144531-46.625 140.800781-93.253906zm0 0"/></svg>