<svg height="512pt" viewBox="0 0 512 512" width="512pt" xmlns="http://www.w3.org/2000/svg"><path d="m264.828125 212.308594v-44.585938c0-4.875-3.953125-8.824218-8.828125-8.824218s-8.828125 3.949218-8.828125 8.824218v46.578125c5.578125-2.324219 11.699219-3.019531 17.65625-1.992187zm0 0"/><path d="m326.621094 264.828125c4.875 0 8.828125-3.953125 8.828125-8.828125s-3.953125-8.828125-8.828125-8.828125h-26.925782c.234376 1.460937.378907 2.9375.441407 4.414063-.042969 4.523437-.871094 9-2.4375 13.242187zm0 0"/><path d="m256 114.757812c-78.003906 0-141.242188 63.238282-141.242188 141.242188s63.238282 141.242188 141.242188 141.242188 141.242188-63.238282 141.242188-141.242188c-.089844-77.96875-63.273438-141.152344-141.242188-141.242188zm-66.058594 60.523438c-24.34375 15.910156-39.265625 42.816406-39.871094 71.890625 0 4.875-3.953124 8.828125-8.828124 8.828125s-8.828126-3.953125-8.828126-8.828125c.660157-35.253906 18.808594-67.875 48.421876-87.015625 4.171874-2.425781 9.515624-1.054688 12.003906 3.078125 2.488281 4.132813 1.195312 9.496094-2.898438 12.046875zm70.472656 116.027344c-21.929687-.023438-39.699218-17.792969-39.722656-39.722656.035156-8.988282 3.152344-17.691407 8.824219-24.660157v-59.203125c0-14.625 11.859375-26.480468 26.484375-26.480468s26.484375 11.855468 26.484375 26.480468v50.863282c4.316406 2.898437 8.03125 6.613281 10.929687 10.929687h33.207032c14.625 0 26.480468 11.859375 26.480468 26.484375s-11.855468 26.484375-26.480468 26.484375h-41.546875c-6.96875 5.671875-15.671875 8.789063-24.660157 8.824219zm110.34375-35.308594c4.875 0 8.828126 3.953125 8.828126 8.828125-.660157 35.253906-18.808594 67.875-48.421876 87.015625-4.171874 2.425781-9.515624 1.054688-12.003906-3.078125-2.488281-4.132813-1.195312-9.496094 2.898438-12.046875 24.34375-15.910156 39.265625-42.816406 39.871094-71.890625 0-4.875 3.953124-8.828125 8.828124-8.828125zm0 0"/><path d="m503.171875 211.863281h-49.082031c-5.042969-23-14.097656-44.933593-26.746094-64.796875l34.605469-34.601562c1.691406-1.648438 2.648437-3.90625 2.648437-6.269532 0-2.359374-.957031-4.621093-2.648437-6.265624l-49.878907-49.878907c-1.644531-1.691406-3.90625-2.648437-6.265624-2.648437-2.363282 0-4.621094.957031-6.269532 2.648437l-34.601562 34.605469c-19.863282-12.644531-41.796875-21.699219-64.796875-26.746094v-49.082031c-.011719-4.871094-3.957031-8.8125-8.828125-8.828125h-70.617188c-4.871094.015625-8.816406 3.957031-8.828125 8.828125v49.082031c-23 5.046875-44.933593 14.101563-64.796875 26.746094l-34.601562-34.605469c-1.648438-1.691406-3.90625-2.648437-6.269532-2.648437-2.359374 0-4.621093.957031-6.265624 2.648437l-49.878907 49.878907c-1.691406 1.644531-2.648437 3.90625-2.648437 6.265624 0 2.363282.957031 4.621094 2.648437 6.269532l34.605469 34.601562c-12.648438 19.863282-21.703125 41.796875-26.746094 64.796875h-49.082031c-4.871094.011719-8.8125 3.957031-8.828125 8.828125v70.617188c.015625 4.871094 3.957031 8.816406 8.828125 8.828125h49.082031c5.042969 23 14.097656 44.933593 26.746094 64.796875l-34.605469 34.601562c-1.691406 1.648438-2.648437 3.90625-2.648437 6.269532 0 2.359374.957031 4.621093 2.648437 6.265624l49.878907 49.878907c1.644531 1.691406 3.90625 2.648437 6.265624 2.648437 2.363282 0 4.621094-.957031 6.269532-2.648437l34.601562-34.605469c19.863282 12.644531 41.796875 21.699219 64.796875 26.746094v49.082031c.011719 4.871094 3.957031 8.8125 8.828125 8.828125h70.617188c4.871094-.015625 8.816406-3.957031 8.828125-8.828125v-49.082031c23-5.046875 44.933593-14.101563 64.796875-26.746094l34.601562 34.605469c1.648438 1.691406 3.90625 2.648437 6.269532 2.648437 2.359374 0 4.621093-.957031 6.265624-2.648437l49.878907-49.878907c1.691406-1.644531 2.648437-3.90625 2.648437-6.265624 0-2.363282-.957031-4.621094-2.648437-6.269532l-34.605469-34.601562c12.648438-19.863282 21.703125-41.796875 26.746094-64.796875h49.082031c4.871094-.011719 8.8125-3.957031 8.828125-8.828125v-70.617188c-.015625-4.871094-3.957031-8.816406-8.828125-8.828125zm-247.171875 203.035157c-87.757812 0-158.898438-71.140626-158.898438-158.898438s71.140626-158.898438 158.898438-158.898438 158.898438 71.140626 158.898438 158.898438c-.101563 87.714844-71.183594 158.796875-158.898438 158.898438zm0 0"/><path d="m260.414062 229.515625c-5.921874.003906-11.59375 2.390625-15.726562 6.628906-.054688.058594-.089844.125-.148438.175781-8.363281 8.640626-8.25 22.394532.253907 30.894532 8.503906 8.5 22.257812 8.605468 30.890625.238281l.148437-.121094c6.417969-6.261719 8.40625-15.789062 5.019531-24.09375-3.386718-8.308593-11.46875-13.734375-20.4375-13.722656zm0 0"/></svg>