<svg id="Layer_1" enable-background="new 0 0 512 512" height="512" viewBox="0 0 512 512" width="512" xmlns="http://www.w3.org/2000/svg"><g><path d="m511.943 244.756c-.013-.171-.018-.344-.036-.514-.029-.258-.076-.516-.118-.774-.041-.253-.077-.507-.13-.756-.037-.172-.089-.343-.133-.515-.083-.327-.166-.652-.27-.97-.01-.032-.016-.064-.027-.096l-60.25-180.75c-2.042-6.125-7.774-10.256-14.23-10.256h-127.845c-6.547-23.057-27.777-40-52.904-40s-46.356 16.943-52.904 40h-127.846c-6.456 0-12.188 4.131-14.23 10.256l-60.25 180.75c-.011.032-.016.064-.027.096-.103.318-.187.643-.27.97-.044.172-.095.343-.132.515-.053.249-.089.503-.13.756-.042.258-.09.516-.118.774-.018.17-.023.343-.036.514-.026.342-.049.683-.052 1.022 0 .032-.005.064-.005.096 0 41.493 33.757 75.25 75.25 75.25s75.25-33.757 75.25-75.25c0-.032-.005-.064-.005-.096-.002-.34-.026-.681-.052-1.022-.013-.171-.018-.344-.036-.514-.029-.258-.076-.516-.118-.774-.041-.253-.077-.507-.13-.756-.037-.172-.089-.343-.132-.515-.083-.327-.166-.652-.27-.97-.01-.032-.016-.064-.027-.096l-53.668-161.006h107.034c5.192 18.285 19.619 32.711 37.904 37.904v233.346h-73.908c-5.265 0-10.144 2.76-12.856 7.272l-32.632 54.286c-34.875 6.541-61.354 37.198-61.354 73.942 0 8.284 6.716 15 15 15h361.5c8.284 0 15-6.716 15-15 0-38.242-28.681-69.889-65.658-74.617l-26.26-52.584c-2.54-5.085-7.735-8.298-13.42-8.298h-75.412v-233.347c18.285-5.192 32.711-19.619 37.904-37.904h107.034l-53.668 161.006c-.011.032-.016.064-.027.096-.104.318-.187.643-.27.97-.044.172-.095.343-.133.515-.053.249-.089.503-.13.756-.042.258-.09.516-.118.774-.018.17-.023.343-.036.514-.026.342-.05.683-.052 1.022 0 .032-.005.064-.005.096 0 41.493 33.757 75.25 75.25 75.25s75.251-33.756 75.251-75.249c0-.032-.005-.064-.005-.096-.002-.34-.026-.681-.052-1.023zm-35.755-13.881h-78.877l39.438-118.316zm-195.188-165.75c0 13.785-11.215 25-25 25s-25-11.215-25-25 11.215-25 25-25 25 11.215 25 25zm-205.75 47.434 39.438 118.316h-78.876zm0 178.566c-19.695 0-36.493-12.649-42.695-30.25h85.391c-6.203 17.601-23.001 30.25-42.696 30.25zm17.556 180.75c6.201-17.601 22.999-30.25 42.694-30.25h241c19.695 0 36.493 12.649 42.694 30.25zm64.587-60.25 18.184-30.25h161.56l15.106 30.25zm279.357-120.5c-19.695 0-36.493-12.649-42.695-30.25h85.391c-6.203 17.601-23.001 30.25-42.696 30.25z"/></g></svg>